<svg xml:space="preserve" style="enable-background:new 0 0 3000 3000;" viewBox="0 0 3000 3000" y="0px" x="0px"
     xmlns="http://www.w3.org/2000/svg" id="Layer_1" version="1.1">
<style type="text/css">
	.st0{fill:none;}
	.st1{fill:#FFFFFF;stroke:#1A1A1A;stroke-width:4.1571;stroke-linecap:round;stroke-linejoin:round;}
	.st2{fill:#1C0311;stroke:#1A1A1A;stroke-width:2.1769;stroke-linecap:round;stroke-linejoin:round;}
	.st3{fill:none;stroke:#FFFFFF;stroke-width:6.5026;stroke-linecap:round;stroke-linejoin:round;}
	.st4{fill:#FFFFFF;stroke:#1A1A1A;stroke-width:4.3397;stroke-linecap:round;stroke-linejoin:round;}
	.st5{fill:#FFFFFF;}
	.st6{fill:none;stroke:#1A1A1A;stroke-width:3.6867;stroke-linecap:round;stroke-linejoin:round;}
	.st7{fill:#FFFFFF;stroke:#1A1A1A;stroke-width:3.6867;stroke-linecap:round;stroke-linejoin:round;}
	.st8{fill:#333333;}
	.st9{fill:none;stroke:#1A1A1A;stroke-width:3.6867;stroke-linecap:round;stroke-linejoin:round;stroke-dasharray:22.1059;}
	.st10{fill:#407BFF;}
	.st11{fill:none;stroke:#1A1A1A;stroke-width:4.3397;stroke-linecap:round;stroke-linejoin:round;stroke-dasharray:26.0173;}
	.st12{fill:#FFFFFF;stroke:#1A1A1A;stroke-width:4.3538;stroke-linecap:round;stroke-linejoin:round;}
	.st13{fill:#54CAFA;stroke:#1A1A1A;stroke-width:3.3355;stroke-linecap:round;stroke-linejoin:round;}
	.st14{fill:#F17712;}
	.st15{opacity:0.3;fill:#FFFFFF;enable-background:new    ;}
	.st16{fill:#1C0311;stroke:#1A1A1A;stroke-width:2.1699;stroke-linecap:round;stroke-linejoin:round;}
	.st17{fill:#1C0311;stroke:#1A1A1A;stroke-width:2.1699;stroke-linecap:round;stroke-linejoin:round;stroke-miterlimit:3.9999;}
	.st18{fill:#FFFFFF;stroke:#1A1A1A;stroke-width:3.3496;stroke-linecap:round;stroke-linejoin:round;}
	
		.st19{fill:none;stroke:#1A1A1A;stroke-width:3.4551;stroke-linecap:round;stroke-linejoin:round;stroke-miterlimit:4.0002;stroke-dasharray:20.7165;}
	.st20{fill:#FFFFFF;stroke:#1A1A1A;stroke-width:3.4549;stroke-linecap:round;stroke-linejoin:round;}
</style>
    <g>
	<rect height="3000" width="3000" class="st0" />
        <g transform="translate(-1022.476 -1353.121)" id="组_385">
		<g id="组_376">
			<ellipse ry="72.9" rx="1248.7" cy="3878.6" cx="2574" class="st1" id="freepik--path--inject-13" />
            <g id="组_374">
				<path d="M3281.4,3617.1c14.1-11.4,29.8-25.8,28-43.8c-1.4-13.6-12.4-23.8-19.9-35.3
					c-10.7-15.9-13.8-35.7-8.6-54.1c5.7-18.5,21.1-32.3,40-35.9c19.2-2.9,38.1,7.2,46.2,24.9c5.6,13.7,3,29.2,3.3,44
					s5.4,31.7,19.2,37.2c11.5,4.5,24.4-0.9,35-7.3c10.6-6.4,21.1-14.2,33.5-14.9c14.9,0,28.4,8.7,34.5,22.2
					c5.8,13.4,6.8,28.5,2.7,42.5c-4.1,13.9-9.9,27.3-17.1,39.9l34.9,46.3l2,146.2l-130.7-9.5c-12.9-7.4-25.2-15.7-37-24.8l-29.5-22
					c-6.7-5-14-11.2-13.9-19.5c0.3-16.9,29.3-21.3,30.1-38.1c-0.3-7-4.5-13.3-10.9-16.2c-6.3-2.7-13-4.3-19.9-4.8
					c-10.5-1-20.7-3.9-30.2-8.5c-9.5-4.8-16.3-13.8-18.4-24.2C3251.9,3643.5,3267.3,3628.5,3281.4,3617.1z"
                      class="st2" id="路径_1268" />
                <path d="M3342.6,3539.9c0,0,8,81.4,48.1,124c30,32.1,44.7,75.7,40.1,119.4
					c-3.5,23.3,16.9,40.8,16.9,40.8" class="st3" id="路径_1269" />
                <path d="M3377.9,3744.8c0,0,39.5-10.5,53.7,13.9" class="st3" id="路径_1270" />
                <path d="M3435.2,3646.1c0,0-18.9,7.5-20.9,50.9" class="st3" id="路径_1271" />
                <path d="M3332.5,3619.6c0,0,11.6,19.9,44,25.7" class="st3" id="路径_1272" />
			</g>
            <g id="组_375">
				<path d="M3459.1,3791.3c-11.6-27.6,3.5-47.8,27.1-60.8c23.8-19.1,8-33.9-10.9-47.9
					c-33.3-33.6,6.2-87.7,48.4-65.9c15.1,8.7,31.7,31.7,50.9,20.4c11.1-7.5,8.8-24,8.6-37.4c-1.1-33.7,27.6-79.5,65.3-70.6
					c16.7,5.5,25,24.5,40.3,33.2c45.2,23.7,86.1-39.4,131.3-31.8c86.7,26.2,47.6,178.4-77.3,150.1c-10.3-0.5-20.3,3.6-27.2,11.2
					c-20.4,27.4,24,64.9,4.4,92.5c-16.9,20.8-46.4,7.3-68.6,5.3c-31.1-3.2-45.5,23.1-29.9,47.3l-121-8.8
					C3482.4,3821.6,3467.6,3808.4,3459.1,3791.3z" class="st4" id="路径_1273" />
                <path d="M3580.2,3833.8l-8.4-19.2c-31.8-149.9,196.3-210.5,196.3-210.5" class="st4"
                      id="路径_1274" />
                <path d="M3559.9,3697.6c0,0-7.5,32.4,14.2,53.2" class="st4" id="路径_1275" />
                <path d="M3661.7,3596.4c-0.7,1.5-21,30.5-8.3,59.8" class="st4" id="路径_1276" />
                <path d="M3651.9,3701.2c0,0-38.6-7.3-53.6,4.2" class="st4" id="路径_1277" />
                <path d="M3756.7,3626.2c-13.5,2.9-27.5,1.7-40.3-3.5" class="st4" id="路径_1278" />
			</g>
		</g>
            <g id="freepik--background-simple--inject-1039">
			<g id="组_377">
				<path d="M3218.6,3010.1c-10.8-241.8-239.7-483.8-453.5-593.5c-236.8-121.5-311-247.4-485-432.6
					c-449.1-478.8-955.6-141-879.5,401.5c33.3,237.4,118.6,527.8,254,739.3c192.4,300.4,328.1,211.6,622.6,192
					c209.2-14,373.3,131.2,575.5,130.8C3110.5,3446.5,3228.8,3244.4,3218.6,3010.1z" class="st5"
                      id="路径_1279" />
			</g>
                <g id="组_378">
				<path d="M3218.6,3010.1c-10.8-241.8-239.7-483.8-453.5-593.5c-236.8-121.5-311-247.4-485-432.6
					c-449.1-478.8-955.6-141-879.5,401.5c33.3,237.4,118.6,527.8,254,739.3c192.4,300.4,328.1,211.6,622.6,192
					c209.2-14,373.3,131.2,575.5,130.8C3110.5,3446.5,3228.8,3244.4,3218.6,3010.1z" class="st6"
                      id="路径_1280" />
			</g>
		</g>
            <path d="M2842,2820h770.3c88.4-0.7,160.9-70.4,165.1-158.7L3794,2247c1.4-26.9-19.2-49.8-46-51.3
			c-1-0.1-2.1-0.1-3.1-0.1h-826.8c-28.6,0.2-52,22.8-53.2,51.4l-16.7,414.3c-4.2,88.3-76.6,157.9-165,158.7L2842,2820z"
                  class="st7" id="路径_1281" />
            <path d="M3664.3,2378.5h-681.4c-8.9,0.1-16.1-7-16.2-15.9l0,0c0-0.4,0-0.8,0-1.2l1.8-44.3
			c0.4-9.4,8.1-16.7,17.5-16.8h681.4c8.8-0.1,16.1,7,16.2,15.8l0,0c0,0.3,0,0.6,0,0.9l-1.8,44.3
			C3681.5,2370.9,3673.8,2378.5,3664.3,2378.5z" class="st8" id="路径_1282" />
            <path d="M3665.4,2462.3H2975c-6.3,0.2-11.6-4.7-11.8-11c0-0.4,0-0.8,0-1.2l0.7-16.8
			c0.3-6.8,5.9-12.2,12.7-12.2h690.5c6.3,0,11.4,5.1,11.4,11.4c0,0.3,0,0.5,0,0.8l-0.6,16.8
			C3677.5,2456.7,3672.1,2462,3665.4,2462.3z" class="st8" id="路径_1283" />
            <path d="M3662.9,2524.9h-690.5c-6.3,0.2-11.5-4.8-11.7-11.1c0-0.4,0-0.8,0-1.2l0.7-16.8
			c0.3-6.8,5.9-12.1,12.6-12.2h690.5c6.3,0,11.4,5.1,11.4,11.4l0,0c0,0.3,0,0.6,0,0.8l-0.7,16.8
			C3675,2519.3,3669.6,2524.7,3662.9,2524.9z" class="st8" id="路径_1284" />
            <path d="M3459.6,2661.3l21.8-540.5c4.1-83.4-60.2-154.4-143.7-158.5c-2.9-0.1-5.8-0.2-8.6-0.2
			h-928.8c83.5-0.7,151.8,66.4,152.5,149.9c0,2.9-0.1,5.8-0.2,8.7l0,0l-21.8,540.5c-3.5,87.7,106.5,158.7,194,158.7h887.1
			c-83.5,0.7-151.8-66.4-152.5-149.9l0,0C3459.4,2667.1,3459.4,2664.2,3459.6,2661.3z" class="st7"
                  id="路径_1285" />
            <path d="M3290.9,3181H2097.7c-28.8,0.2-52.3-23-52.4-51.8l0,0c0-0.9,0-1.9,0.1-2.8l33.7-835.4
			c1.4-30.2,26.2-54.1,56.5-54.3h1193.2c28.7-0.3,52.2,22.8,52.4,51.5l0,0c0,1,0,2-0.1,3l-33.6,835.4
			C3346.1,3156.9,3321.2,3180.8,3290.9,3181z" class="st7" id="路径_1286" />
            <path d="M3295.1,2285.5H2165.2c-20.3,0.2-36.9,16.1-37.8,36.3l-27.3,678.6h1202.6l27.3-678.6
			c0.9-19.1-13.8-35.4-32.9-36.3l0,0C3296.5,2285.5,3295.8,2285.5,3295.1,2285.5z" class="st9"
                  id="路径_1287" />
            <path d="M2270.9,2236.8l-27,671.3c-0.9,18,13.1,33.3,31.1,34.2l0,0c0.6,0,1.2,0,1.9,0H3137
			c19.1-0.1,34.8-15.2,35.7-34.2l27.1-671.3H2270.9z" class="st9" id="路径_1288" />
            <path d="M3170.4,1962.1H2400c-88.4,0.7-160.8,70.4-165,158.7l-32.2,798.9
			c-0.8,18.1,13.2,33.4,31.2,34.2l0,0c0.6,0,1.2,0,1.7,0H3096c19.1-0.2,34.8-15.2,35.7-34.2l32.2-798.9
			c4.2-88.3,76.7-158,165.1-158.7L3170.4,1962.1L3170.4,1962.1z" class="st10" id="路径_1289" />
            <path d="M3170.4,1962.1H2400c-88.4,0.7-160.8,70.4-165,158.7l-32.2,798.9
			c-0.8,18.1,13.2,33.4,31.2,34.2l0,0c0.6,0,1.2,0,1.7,0H3096c19.1-0.2,34.8-15.2,35.7-34.2l32.2-798.9
			c4.2-88.3,76.7-158,165.1-158.7L3170.4,1962.1L3170.4,1962.1z" class="st7" id="路径_1290" />
            <path d="M3080.4,2513.5h-793.2c-10.2,0.1-18.5-8.1-18.6-18.4c0-0.3,0-0.7,0-1l12.3-303.8
			c0.5-10.7,9.3-19.2,20.1-19.3h793.2c10.2-0.1,18.5,8.1,18.6,18.2l0,0c0,0.4,0,0.7,0,1l-12.3,303.6
			C3100.1,2504.8,3091.3,2513.4,3080.4,2513.5z" class="st7" id="路径_1291" />
            <path d="M3066.6,2855.9h-266.3c-10.2,0.1-18.5-8.1-18.6-18.4l0,0c0-0.3,0-0.7,0-1l10.7-266.3
			c0.5-10.8,9.4-19.2,20.1-19.3h266.3c10.2-0.1,18.5,8.1,18.6,18.3l0,0c0,0.3,0,0.7,0,1l-10.7,266.1
			C3086.3,2847.2,3077.5,2855.8,3066.6,2855.9z" class="st5" id="路径_1292" />
            <path d="M2778.6,2840.1l8.8-219.2c0.2-4.8,4.1-8.6,9-8.7h219.2c4.6,0,8.3,3.7,8.3,8.3l0,0
			c0,0.1,0,0.3,0,0.4l-8.8,219.2c-0.2,4.8-4.1,8.6-9,8.7h-219.2c-4.6,0-8.3-3.7-8.3-8.3C2778.6,2840.3,2778.6,2840.2,2778.6,2840.1z"
                  class="st7" id="路径_1293" />
            <path d="M2942.8,2743.5l-12,19.2l-39.1-71.8l-98.8,157.9h207.3L2942.8,2743.5z" class="st11"
                  id="路径_1294" />
            <path d="M2998.7,2663.2c-0.6,15.3-13.2,27.4-28.5,27.4c-14.4,0.1-26.2-11.5-26.3-25.9
			c0-0.5,0-1,0-1.5c0.6-15.3,13.2-27.4,28.5-27.3c14.4-0.1,26.2,11.5,26.3,25.9l0,0C2998.7,2662.2,2998.7,2662.7,2998.7,2663.2z"
                  class="st7" id="路径_1295" />
            <path d="M1691,2157.7c7.7,35.9,16.1,101.7-8.9,126.5c20,18.8,46.1,40.5,89.1,40.6
			s34.9-29,23.3-44.2c-40.5-8.3-40-38.1-33.5-66.4L1691,2157.7z" class="st12" id="路径_1296" />
            <path d="M1675.7,2351.9c-15.3,30.8-30.8,62.4-45.8,93.6c-15.1,31.2-29.5,62.7-42.2,94.1
			c-1.7,3.9-3.1,7.8-4.6,11.7l-3.6,9.7c-1.5,4.7-2.1,9.6-1.7,14.5c1.3,14.6,4.6,28.9,9.8,42.5c12,31.3,26.6,61.5,43.6,90.4l-29,23.4
			c-26.7-26.6-49.5-56.8-67.6-89.8c-10.1-18.3-17.2-38.1-21-58.6c-2.2-12.6-2.1-25.6,0.5-38.1l1.2-5.2c0.5-1.8,0.7-2.5,1.1-3.7
			l2-6.7c1.4-4.5,2.6-9,4.1-13.3c11.6-35.1,25.2-68.6,39.6-101.6s30.2-65.3,47.2-97.4L1675.7,2351.9z"
                  class="st12" id="路径_1297" />
            <path d="M1622.2,2287.5c-45.2,14.1-72.7,110.7-72.7,110.7l93.1,78.1c17.9-35,33.4-71,46.6-108
			C1711,2305.3,1676.8,2270.5,1622.2,2287.5z" class="st13" id="路径_1298" />
            <path d="M1620.8,2697.2l-27.8,11.6c-15.4,18.9,22.2,69.3,22.2,69.3l42.4-46.9L1620.8,2697.2z" class="st12"
                  id="路径_1299" />
            <path d="M1853.7,2283.3c-73.2-12.3-162.4-16.2-230.6,3.2c-18.7,5.5-29.7,24.7-25,43.5
			c41.1,177.7,29.2,357.2,33.2,395.2l263.9-4.2c13-217.3-1.8-352.2-10.1-405.9C1882.6,2298.9,1870,2286,1853.7,2283.3z"
                  class="st13" id="路径_1300" />
            <path d="M1873.2,2308.4c23.1,22.1,46.9,44.6,70.6,66.3c11.9,10.9,23.8,21.6,35.8,31.9
			c11.9,10.3,24,20.4,35.8,28.8c5,3.8,10.3,7.2,15.8,10.3l1.5,0.8h-1.6c-1.8,0-1.2,0.6,0,0.3c5.2-1.3,10.1-3.3,14.6-6.2
			c6.4-3.3,12.6-6.9,18.6-10.9c25.3-18.8,49.7-38.9,72.9-60.3l28.9,23.2c-8.8,14.8-18.5,29-29.1,42.6c-10.6,14-22.3,27.2-34.8,39.5
			c-6.7,6.6-13.8,12.8-21.3,18.4c-8.9,6.9-18.8,12.4-29.3,16.5c-7.7,2.8-15.9,4.2-24,3.9c-2.6-0.1-5.2-0.4-7.8-0.8l-4-0.9l-2.6-0.7
			l-5.1-1.7l-4.2-1.7c-9.3-4.1-18.4-8.9-26.9-14.3c-29-19.1-56.7-40.2-82.7-63.2c-25.5-22.2-49.8-44.8-73.8-68.9L1873.2,2308.4z"
                  class="st12" id="路径_1301" />
            <path d="M1790.7,2328.3c-6.6,46.9,104.5,136.4,104.5,136.4l59.8-91.8c0,0-12.3-23.4-56.6-65
			C1853,2265.3,1798,2276.7,1790.7,2328.3z" class="st14" id="路径_1302" />
            <path d="M1790.7,2328.3c-4.1,29.3,37.8,75.3,69.7,105.6c19.2,18.2,34.8,30.8,34.8,30.8l59.8-91.8
			c0,0-12.3-23.4-56.6-65c-14-14.1-32.1-23.2-51.8-25.9C1818.7,2279.3,1795.3,2295.9,1790.7,2328.3z" class="st13"
                  id="路径_1303" />
            <path d="M2974,2441.1l-791.6,51.9c-10.2,0.7-19-6.9-19.8-17.1c0-0.3,0-0.6,0-1L2155,2171
			c-0.2-10.8,8-19.8,18.8-20.6l791.6-51.9c10.2-0.7,19,6.9,19.7,17.1c0,0.3,0,0.7,0,1l7.7,303.9
			C2993,2431.3,2984.7,2440.4,2974,2441.1z" class="st7" id="路径_1304" />
            <path d="M2223.9,2340.3l-9.9-24.6c-0.3-0.7-0.6-1.4-1-2c-3.4-5.2-10.3-6.7-15.5-3.3l0,0l-32.3,21.2
			l-0.1-0.1l-34.1,44.9l15.3,25.2c34.5,10.2,56-27,56.5-27.8l0,0l19-21.1C2224.8,2349.3,2225.6,2344.4,2223.9,2340.3z"
                  class="st12" id="路径_1305" />
            <path d="M1680.1,2103.4c5.3,48.8,6.2,77.6,31.7,101.8c38.9,36.5,98.4,12.3,107.6-36.9
			c8.4-44.2-1.7-116.8-50.4-134.4c-34-13-72.1,4-85.1,37.9C1680.1,2081.9,1678.8,2092.7,1680.1,2103.4L1680.1,2103.4z"
                  class="st12" id="路径_1306" />
            <path d="M1777.9,2131.1c6.1,18.8-6.8,59.1-10.9,71.4s-21.2,23.1-51.3,20.3
			c-21.4-1.4-37.7-20-36.2-41.4c0-0.5,0.1-1.1,0.1-1.6c-13.4-2-27.8-26.6-27.1-43.6s-24.6-34.7-27.7-51.3s10.9-39.7,29.3-28
			c-11.9-12.3-13-43,23.6-49.2c29.2-4.6,59.4,10.9,82,2.1s52.5-14.7,59,3.4c12.3-7.2,30.8,7.2,24.6,29.4
			c-6.2,22.2-51.2,35.2-51.2,35.2S1809.1,2121.2,1777.9,2131.1z" class="st8" id="路径_1307" />
            <path d="M1751.9,2136.2c3.8,10.3,11.4,18.7,21.3,23.5c13.2,6.1,22-4.8,20.2-18.5
			c-1.5-12.3-10.3-30.1-24.6-30.7C1754.6,2109.9,1747.5,2123.6,1751.9,2136.2z" class="st12"
                  id="路径_1308" />
            <path d="M1516.8,3812.6c-18.5-15.7-32.7-36-41-58.9c-1.9-4-5.3-7.1-9.5-8.7l-1.7-0.8l42.3-97.2
			l-48.1-11.4l-38,87.3l-3.4-1.7c-1.7-0.9-3.9-0.3-4.9,1.4l-23.4,36.9c-2.3,3.9-0.9,8.9,3,11.2c0.2,0.1,0.3,0.2,0.5,0.3
			c17.7,8.2,23.9,9.6,46.1,20.4c25.9,12.6,24.6,19.9,54.9,34.7C1512.1,3834.9,1523.8,3818.1,1516.8,3812.6z"
                  class="st12" id="路径_1309" />
            <path d="M1506.9,3647l-25.2,57.9l-46.8-14.5l23.9-54.9L1506.9,3647z" class="st8" id="路径_1310" />
            <path d="M1567.1,3197.1c38-219.8,32.1-422.2,64.2-471.8l174.4-2.8c0,0-86.9,353.2-127.6,498.6
			c-42.2,151.1-169.8,461.9-169.8,461.9l-76.4-23.6C1431.9,3659.4,1507.2,3365.2,1567.1,3197.1z" class="st12"
                  id="路径_1311" />
            <path d="M1872.2,3845.9c-39.7-7.9-43.7-8.3-79.9-28.4c-3.7-2.2-8-3.4-12.3-3.4l-3.7,0.1l2-109.1
			l-49.3,0.7l-2.1,109.1h-0.8c-2,0-3.6,1.5-3.8,3.4l-3.6,44c-0.3,4.5,3.2,8.4,7.7,8.7h0.6c19.4-0.6,47.2-2.2,71.6-2.6
			c28.5-0.4,25.8,0.7,59.2,0C1878.1,3868.2,1880.9,3847.6,1872.2,3845.9z" class="st12" id="路径_1312" />
            <path d="M1778.2,3705.1l-1,59l-49.3,0.8l1-59L1778.2,3705.1z" class="st8" id="路径_1313" />
            <path d="M1689.1,2724.3l206-3.3c0,0-20.6,357.7-35.7,507.8c-15.6,156.1-63.8,515.5-63.8,515.5
			l-83.6,1.3c0,0,7.9-338.7,28.6-534.7c-3.6-92.7-13.3-185-29.2-276.4" class="st12" id="路径_1314" />
            <path d="M1781,3735.3L1781,3735.3c-0.8-0.1-1.5-0.8-1.4-1.7l0,0c5.6-57.3,15.9-142.4,26.8-232.4
			c11.9-98.4,24.2-200.1,31.2-272.5c13.3-138.3,34.9-431.6,35.5-464.9c-15.8-3.1-29.1-13.9-35.4-28.8c-0.3-0.8,0.1-1.7,0.9-2l0,0
			l0,0c0.8-0.3,1.6,0.1,1.9,0.9l0,0l0,0c6.1,14.3,19.1,24.4,34.4,27c0.7,0.1,1.3,0.8,1.3,1.5c0,26.3-22.1,325.9-35.5,466.5
			c-7,72.4-19.3,174.2-31.2,272.5c-10.9,90.1-21.2,175.1-26.8,232.4c-0.1,0.8-0.8,1.4-1.6,1.4l0,0L1781,3735.3z"
                  class="st15" id="路径_1315" />
            <g id="组_380">
			<path d="M2582.7,2843.5c-46.2,19.6-87.8,42.5-87.8,42.5s-39.9-25.7-84.7-48.5
				c-44.7-22.7-43.2-44.2-43.2-44.2l5.9-173.6c1.6-45.5,70.2-55.7,70.2-55.7l125.4,4.3c0,0,67.8,14.9,66.2,60.3l-5.9,173.6
				C2628.8,2802.3,2628.8,2823.9,2582.7,2843.5z" class="st4" id="路径_1316" />
                <path d="M2496,2853.7c-15.9-9.7-43.3-25.9-73.1-41.1c-20.3-10.3-26.3-18.6-27.8-21.3l5.8-170.6
				c0.6-16.7,32.5-26.1,44.1-28.5l119.5,4.1c11.4,3.1,42.7,14.7,42.1,31.4l-5.8,170.6c-1.7,2.6-8.2,10.5-29.2,19.4
				C2540.9,2830.8,2512.5,2845,2496,2853.7z" class="st4" id="路径_1317" />
                <g id="组_379">
				<path d="M2549.5,2701.3l0.6-17.5c1-29.7-22.3-54.7-52-55.7s-54.7,22.3-55.7,52l0,0l-0.6,17.5
					c-0.2,5.5,4.1,10.1,9.5,10.2c5.5,0.2,10.1-4.1,10.2-9.5l0.6-17.5c0.6-18.8,16.4-33.5,35.2-32.9s33.5,16.4,32.9,35.2l-0.6,17.5
					c-0.2,5.5,4.1,10.1,9.5,10.2S2549.3,2706.8,2549.5,2701.3L2549.5,2701.3z" class="st16"
                      id="路径_1318" />
			</g>

                <rect height="134" width="95.2" class="st17"
                      transform="matrix(3.421971e-02 -0.9994 0.9994 3.421971e-02 -329.4637 5138.8467)" y="2672.9"
                      x="2446.6" id="矩形_367" />
		</g>
            <path d="M1283.7,3189l-27.1-7.7c-2.9-0.8-6-0.2-8.3,1.8l-21.7,18c-3.9,3.2-9.6,2.7-12.8-1.2
			c-1.3-1.5-2-3.5-2.1-5.4l-1.1-28.2c-0.1-3-1.7-5.7-4.2-7.3l-23.8-15.1c-4.2-2.7-5.5-8.3-2.8-12.5c1.1-1.7,2.7-3,4.5-3.7l26.5-9.7
			c2.8-1,4.9-3.4,5.7-6.3l7-27.3c1.2-4.9,6.2-7.8,11.1-6.5c1.9,0.5,3.6,1.6,4.9,3.2l17.4,22.2c1.9,2.3,4.7,3.6,7.7,3.5l28.1-1.8
			c5-0.3,9.3,3.5,9.7,8.5c0.1,2-0.4,4-1.5,5.7l-15.7,23.4c-1.7,2.5-2,5.6-0.9,8.4l10.4,26.2c1.8,4.7-0.4,9.9-5.1,11.8
			C1287.6,3189.4,1285.6,3189.5,1283.7,3189z" class="st18" id="路径_1319" />
            <g id="组_382">
			
				<rect height="141.1" width="141.8" class="st19"
                      transform="matrix(0.9984 -5.735229e-02 5.735229e-02 0.9984 -128.565 140.858)" y="2239.7"
                      x="2318.8" id="矩形_368" />
                <g id="组_381">
				<path d="M2455.1,2367.7c-39.5,4.5-87.6,3.8-99.9-6.3c-12.2-10.1-14.4-15.8-18.6-31.3
					c-6-25.7-9.8-51.8-11.4-78.2l122.8-7.1L2455.1,2367.7z" class="st20" id="路径_1320" />
                    <path d="M2335.3,2325.3c5.9,19.7,33.4,18.5,33.4,18.5c1.1,10.1,6.5,19.3,14.6,25.3" class="st20"
                          id="路径_1321" />
			</g>
		</g>
            <g id="组_384">
			
				<rect height="141.1" width="141.8" class="st19"
                      transform="matrix(0.9984 -5.735229e-02 5.735229e-02 0.9984 -126.595 161.1044)" y="2215.5"
                      x="2672.5" id="矩形_369" />
                <g id="组_383">
				<path d="M2808.9,2343.5c-39.5,4.5-87.6,3.8-99.9-6.3c-12.2-10.1-14.4-15.8-18.6-31.3
					c-6-25.7-9.8-51.8-11.4-78.2l122.8-7.1L2808.9,2343.5z" class="st20" id="路径_1322" />
                    <path d="M2689.1,2301.2c5.9,19.7,33.4,18.5,33.4,18.5c1.1,10.1,6.5,19.3,14.6,25.3" class="st20"
                          id="路径_1323" />
			</g>
		</g>
	</g>
</g>
</svg>
