<svg xml:space="preserve" style="enable-background:new 0 0 3000 3000;" viewBox="0 0 3000 3000" y="0px" x="0px"
     xmlns="http://www.w3.org/2000/svg" id="Layer_1" version="1.1">
<style type="text/css">
	.st0{fill:none;}
	.st1{fill:none;stroke:#1A1A1A;stroke-width:6.1294;stroke-linecap:round;stroke-linejoin:round;stroke-miterlimit:10;}
	.st2{fill:#FFFFFF;stroke:#1A1A1A;stroke-width:4.0863;stroke-linecap:round;stroke-linejoin:round;stroke-miterlimit:10;}
	.st3{fill:#1C0311;stroke:#1A1A1A;stroke-width:2.0431;stroke-linecap:round;stroke-linejoin:round;stroke-miterlimit:10;}
	.st4{fill:none;stroke:#FFFFFF;stroke-width:6.1294;stroke-linecap:round;stroke-linejoin:round;stroke-miterlimit:10;}
	.st5{fill:#54CAFA;stroke:#1A1A1A;stroke-width:4.0863;stroke-linecap:round;stroke-linejoin:round;stroke-miterlimit:10;}
</style>
    <g>
	<rect height="3000" width="3000" class="st0" />
        <path d="M287.8,1939.1c95.6-105.7,292.8-87.2,450.1-4.4c163.5-319.8,509.8-413.5,703.5-292.8
		c129,80.4,193,257.6,179.1,441.3c17.1,0.7,72.2,5.2,118,48.1c73.8,69.1,53.8,172.8,52.4,179.1c95-210.3,343.1-294.7,528.7-201
		c162.9,82.2,247.3,286.3,183.5,476.3c-702,0-1404.1,0-2106.1,0C314.1,2585.9-22.4,2282.1,287.8,1939.1z"
              class="st1" />
        <g>
		<polygon points="1850.8,1777.6 1805.4,1685.7 1784.8,1695.1 1831.8,1787.9" class="st2" />
            <path d="M1828.8,1820.6c0,0,40.2,66.6,38.3,82.9c-1.9,16.3-25.8,11.9-25.8,11.9s-32-59.7-45.9-90.5
			c-13.8-30.8,21.4-37.7,21.4-37.7l36.4-19.5c0,0,98,197.9,103.6,211.7l-44.6,13.2l-46.2-85.5"
                  class="st2" />
            <path d="M1848.9,1791.1c0,0-5.7,3.8-15.1,9.4c-9.4,5.7-5,20.1-5,20.1" class="st2" />
            <path d="M1962.6,1630.3l-5.7,337.9c0,0,97.4,13.2,98.6,0c1.3-13.2,15.7-334.8,15.7-334.8L1962.6,1630.3z"
                  class="st2" />
            <polygon points="1953.2,1697.5 2077.6,1701.9 2071.3,1819.3 1950.7,1819.3" class="st3" />
            <polygon points="2173,1685.7 2159.2,1630.3 2182.5,1571.9 2245.3,1527.3 2255.9,1529.8 2267.9,1598.2 2243.4,1666.7
			2206.3,1693.1" class="st3" />
            <line y2="1693.1" x2="2189.4" y1="1569.3" x1="2236.5" class="st4" />
            <polygon points="2164.9,1679.3 2077.6,1970.7 2124,1974.1 2218.3,1685.7" class="st2" />
            <g>
			<path d="M2153.1,1976.4l88.1-208.5l71.6,22.5l25.4,36.4l-57,130.9c0,0-20.3-7.5-19.8-9c0.5-1.4,40.5-90,40.5-90
				l-11.7-16.4l-67.6,143.6" class="st2" />
                <line y2="1842.2" x2="2290.2" y1="1790.3" x1="2312.8" class="st2" />
		</g>
            <polygon points="1823.8,2004.6 1874,2439.3 2181.8,2439.3 2227,2004.6" class="st2" />
            <rect height="54" width="466.1" class="st2" y="1965.7" x="1784.8" />
	</g>
        <path d="M501.2,2585.8l1939.7-0.7c35.6-185.3-62.8-356.1-197.9-401.4c-164.6-55.2-393.6,72.8-429.6,310.9
		c-16.2-32.5-48.6-53.5-83.9-54c-46-0.7-73.6,33.8-76.6,37.7c-10.3-133.9-99.2-247.7-222.4-286.4
		c-139.1-43.7-295.8,16.7-374.4,148.2c-126.5-172.3-353.8-195.9-477.4-91.7C488.7,2324.4,456.1,2452.7,501.2,2585.8z"
              class="st2" />
        <path d="M526.1,2585.2h1297.7c0,0,17.4,149.4-594.3,147S526.1,2585.2,526.1,2585.2z" class="st2" />
        <line y2="2585.8" x2="2927" y1="2585.8" x1="65" class="st1" />
        <g>
		<path d="M663.7,402.9c-0.5,4.2-0.7,8.4-0.7,12.7v918.6c0,63.2,51.3,114.5,114.5,114.5h1314.4
			c63.2,0,114.5-51.3,114.5-114.5V415.6c0-4.3-0.3-8.5-0.7-12.7H663.7z" class="st2" />
            <path d="M2091.8,301.1H777.5c-58.9,0-107.4,44.5-113.8,101.8h1541.9C2199.3,345.7,2150.8,301.1,2091.8,301.1z"
                  class="st3" />
            <rect height="848" width="633.6" class="st2" y="507.5" x="770.4" />
            <rect height="848" width="473.4" class="st2" y="507.5" x="1501.1" />
            <line y2="1448.7" x2="2040.5" y1="402.9" x1="2040.5" class="st2" />
            <circle r="23.6" cy="524.4" cx="2122.5" class="st2" />
            <circle r="23.6" cy="714.5" cx="2122.5" class="st2" />
            <circle r="23.6" cy="904.5" cx="2122.5" class="st2" />
            <circle r="23.6" cy="1094.5" cx="2122.5" class="st3" />
            <rect height="21.7" width="240.3" class="st2" y="565.9" x="1680.6" />
            <rect height="21.7" width="349.9" class="st2" y="643.7" x="1570.4" />
            <rect height="21.7" width="349.9" class="st2" y="714.5" x="1570.4" />
            <rect height="21.7" width="349.9" class="st2" y="785.2" x="1570.4" />
            <rect height="21.7" width="349.9" class="st2" y="855.9" x="1570.4" />
            <polygon points="1540.2,446.2 1540.2,470.7 1590.6,470.7 1590.6,587.6 1617.9,587.6 1617.9,470.7 1668.3,470.7
			1668.3,446.2" class="st3" />
	</g>
        <g>
		<path d="M1235.7,1110.6c0,0,51.5,247.7,129.4,266.6c77.9,18.8,147-94.4,147-94.4l-31.4-7.3l-38,5
			c-48.1,18.8-104.6-81-117.8-194.1c-13.2-113.1-99.9-147.9-99.9-147.9" class="st2" />
            <path d="M793,2506.8c-5.6-9.6-0.8-27,4.4-40.3c-28,1.6-54.2-3.1-75.1-24.1c-17.8,30.9-49.5,90.6-40.9,111.5
			c11.8,28.7,137.6,80.1,172,84.3c34.4,4.2,48.1-12.7,37.7-26.4C880.6,2598.2,805.3,2517.7,793,2506.8z"
                  class="st2" />
            <path d="M797.4,2466.6c4-10.3,8.3-18.1,8.3-18.1l-72.1-25c0,0-4.7,7.5-11.4,19
			C743.2,2463.4,769.4,2468.1,797.4,2466.6z" class="st3" />
            <path d="M1382.1,2517.9c-5.3-13-9.9-24.6-9.9-24.6l-75.4,21.4c0,0,2.9,10.9,7.3,26.6
			C1331.3,2543.5,1356.9,2531.4,1382.1,2517.9z" class="st3" />
            <path d="M1549.3,2648.5c-3.1-23.2-61.6-50.9-96.7-68.5c-35.2-17.6-50.3-20.1-54.6-26.4c-2.4-3.4-9.6-20.6-15.8-35.7
			c-25.2,13.4-50.7,25.6-78,23.4c9.8,34.9,27.1,93.3,36.7,107.2C1354.6,2668.6,1552.4,2671.7,1549.3,2648.5z"
                  class="st2" />
            <path d="M1274.2,1325c0,0,14.4,30.2,11.3,85.4c-3.1,55.3-43.3,265.1-120,414.6s-312.2,625-349.9,633.8
			s-100.5-31.4-94.2-45.9c6.3-14.4,234.3-623.1,276.4-745.6c42.1-122.5,81.7-312.8,81.7-312.8"
                  class="st2" />
            <path d="M1195,1465.1c3.8,15.1-1.9,27.6-5,63.4c-3.1,35.8,50.9,307.8,62.2,361.8c11.3,54,143.2,563.1,150.8,585.4
			c7.5,22.3-26.7,44.3-71,51.2c-44.3,6.9-56.5-19.8-62.8-31.1S898.5,1647.5,885.3,1542c-9.6-77.1,13.9-148.4,27.3-181.2
			c4.9-12.1,8.5-18.9,8.5-18.9l261.9,18.2" class="st2" />
            <path d="M925.1,1360.4c0,0,6.7,26.7,125.4,43.7c118.7,17,157.2-14.5,195.8-23.6c0,0,38.8-21.4,36.6-28.1
			c-8.7-27.4-8.7-27.4-8.7-27.4l-353,17l-4.2,8.9L925.1,1360.4z" class="st3" />
            <path d="M1225,910.7c0,0,36.7,2,73,62.3c36.3,60.3,41.9,109.8,42.4,111.2c0.5,1.4,1.9,10.8-13.2,18.4
			c-15.1,7.5-41.5,22.1-41.5,22.1" class="st5" />
            <path d="M1159.8,867.1c0,0,55.9,13.8,76,45.9c20.1,32,66,107.1,58.4,247.5S1283,1330,1283,1330s-16,41.5-78.2,51.8
			s-186.6,33.9-277-27.3c-13.2-12.2-36.7-17.9-9.4-111.2s66.9-282.7,66.9-282.7l47.7-72.2" class="st5" />
            <path d="M1176.2,786.1c-8.8,15.7-13.2,71.6,0,102.4c-36.4,38.3-120,19.5-143.2,0c59-60.9,59.7-142,59.7-142
			s-41.1-90.1,11.9-117.5s118.1,0,118.1,0s23.6,23.6,16,85.3c-5.8,47.4-19.3,72.1-45.2,72.1s-38.7-2.6-46.6-5.7"
                  class="st2" />
            <path d="M1125.3,708.2c0,0,8.2,56.5-14.4,74.7c-22.6,18.2-27,20.7-47.7,16.3c-20.7-4.4-57.8-4.4-59-35.5
			s8.5-54,31.1-66.9c0,0-26.4-22.6-10.7-63.4c15.7-40.8,47.7-33,47.7-33s-6.3-42.4,51.2-64.4c57.5-22,129.4,13.8,129.7,94.2
			c-4.4,23.2-14.8,25.1-14.8,25.1s-72.9-21.4-89.8,0.3c-6.3,10.7-6.3,8.7-9.1,9.7c-2.8,1-28-41.7-48.4-9.7
			C1070.7,687.8,1125.3,708.2,1125.3,708.2z" class="st3" />
            <polygon points="1414.9,978.6 1269.8,1245.2 1434.7,1339.3 1577.9,1082.2" class="st2" />
            <path d="M909.8,1179.3c0,0-2.8,145.6,84.8,158.3c95.7,13.9,207.3-59.7,277.6-145.1c30.2,4.4,62.8,15.4,76.3,6.3
			c13.5-9.1,21.4-20.1,5.3-33c-16-12.9-41.2-29.2-68.2-28c-20.7,0.9-34.9-1.6-67.2,28c0,0-81.7,63.9-127.8,72.9
			c-46.2,9-55.6-55.6-54.6-66.9" class="st2" />
            <path d="M1033,888.4c0,0-30.8,18.8-69.1,48.4c-38.3,29.5-66,97.4-54,242.5c51.5,8.2,114.9,5,126.3-7.5
			c3.8-52.1,16-92.3,14.1-118.7" class="st5" />
	</g>
        <path d="M1482.9,1282.4c-30,4.2-29.7-19.3-26.6-33.7c3.8-17.9,16.3-43.6,40.8-40c4.6,0.7,9,2.5,12.8,5.2
		c3.7,2.7-2.4-20.7,10.2-20.2c17.2,0.6,8.4,68.6-10.2,92.5" class="st2" />
        <circle r="67" cy="1307" cx="2552.7" class="st1" />
        <circle r="95.9" cy="1190.4" cx="335.7" class="st2" />
        <circle r="109" cy="1610.2" cx="527.4" class="st2" />
        <g>
		<path d="M554.1,1663.1c-9.7,5.1-19.5,7-31.3,7c-28.8,0-53.2-21.1-53.2-54.8c0-36.2,25.1-67.5,64.1-67.5
			c30.6,0,51.1,21.4,51.1,50.8c0,26.4-14.8,41.8-31.3,41.8c-7,0-13.5-4.7-13-15.5h-0.7c-6.2,10.4-14.2,15.5-24.8,15.5
			c-10.2,0-19-8.3-19-22.1c0-21.8,17.2-41.6,41.6-41.6c7.6,0,14.2,1.6,18.8,3.7l-6,31.8c-2.6,13.4-0.5,19.5,5.3,19.7
			c9,0.2,19-11.8,19-32.2c0-25.5-15.3-43.8-42.5-43.8c-28.6,0-52.7,22.7-52.7,58.3c0,29.3,19.2,47.4,45.2,47.4
			c10,0,19.3-2.1,26.5-6.2L554.1,1663.1z M544.4,1587.1c-1.8-0.5-4.7-1.2-8.8-1.2c-15.5,0-27.9,14.6-27.9,31.6
			c0,7.7,3.9,13.4,11.6,13.4c10.2,0,19.5-13,21.4-23.9L544.4,1587.1z" class="st2" />
	</g>
        <g>
		<path d="M893.3,575.4H598.1c-28.4,0-51.5,23.1-51.5,51.5v62c0,28.4,23.1,51.5,51.5,51.5h235.7
			c10.3,15,27.8,39.6,42.9,60.7c7.6,10.7,24.4,4.1,22.9-8.9l-6.1-51.8c28.4-0.1,51.3-23.1,51.3-51.5v-62
			C944.8,598.5,921.8,575.4,893.3,575.4z" class="st2" />
            <rect height="23.3" width="263.6" class="st2" y="608.8" x="606.8" />
            <rect height="23.3" width="263.6" class="st2" y="667.6" x="606.8" />
	</g>
</g>
</svg>
